<svg xmlns="http://www.w3.org/2000/svg" width="28" height="28" fill="none" viewBox="0 0 28 28"><circle cx="14" cy="14" r="14" fill="#C4C4C4"/><mask id="mask0" width="28" height="28" x="0" y="0" mask-type="alpha" maskUnits="userSpaceOnUse"><circle cx="14" cy="14" r="14" fill="#CCC"/></mask><g mask="url(#mask0)"><path stroke="#000" stroke-linecap="round" stroke-linejoin="round" stroke-width="2" d="M16 17V11M22 6H16V11M16 11H20"/><path stroke="#000" stroke-linecap="round" stroke-linejoin="round" stroke-width="2" d="M12 17V11M6 6H12V11M12 11H8"/><circle cx="14" cy="30" r="14" fill="#333"/><circle cx="17" cy="21" r="2" fill="#fff"/><circle cx="17" cy="21" r="1" fill="#000"/><circle cx="11" cy="21" r="2" fill="#fff"/><circle cx="11" cy="21" r="1" fill="#000"/><path stroke="#fff" stroke-linecap="round" d="M11.5 25C11.5 25 12.5 25.5 14 25.5C15.5 25.5 16.5 25 16.5 25"/></g></svg>