<svg xmlns="http://www.w3.org/2000/svg" xmlns:xlink="http://www.w3.org/1999/xlink" width="650" height="650" preserveAspectRatio="xMidYMid meet" version="1.1" viewBox="0 0 650 650"><defs><path id="ax51glKjl" d="M78.18 80.28C-17.91 176.41 -17.91 332.82 78.18 428.96C163.77 514.53 297.08 523.7 393.13 456.88C395.15 466.44 399.77 475.57 407.21 483C421.21 497 533.18 608.98 547.18 622.98C567.58 643.33 600.54 643.33 620.83 622.98C641.21 602.6 641.21 569.64 620.83 549.32C606.84 535.32 494.86 423.31 480.86 409.31C473.47 401.93 464.32 397.29 454.76 395.27C521.62 299.2 512.45 165.91 426.84 80.28C330.73 -15.83 174.3 -15.83 78.18 80.28ZM122.37 384.77C50.66 313.01 50.66 196.25 122.37 124.49C194.11 52.76 310.89 52.76 382.65 124.49C454.4 196.25 454.4 313.01 382.65 384.77C310.89 456.52 194.11 456.52 122.37 384.77Z"/><path id="b16WydrtxU" d="M252.87 68.79C161.9 68.79 86.31 134.62 71.12 221.25C88.61 221.26 102.78 235.44 102.78 252.93C102.78 270.43 88.6 284.61 71.1 284.61C71.06 284.61 71.03 284.61 70.99 284.61C85.85 371.63 161.62 437.86 252.87 437.86C354.79 437.86 437.41 355.24 437.41 253.33C437.41 151.41 354.79 68.79 252.87 68.79"/><path id="a3fSdH2Na6" d="M103.23 253.33C103.23 271.12 88.79 285.57 70.99 285.57C53.19 285.57 38.75 271.12 38.75 253.33C38.75 235.53 53.19 221.08 70.99 221.08C88.79 221.08 103.23 235.53 103.23 253.33Z"/><path id="b39iKYr0O" d="M94.3 253.33C94.3 266.2 83.87 276.64 70.99 276.64C58.11 276.64 47.68 266.2 47.68 253.33C47.68 240.45 58.11 230.01 70.99 230.01C83.87 230.01 94.3 240.45 94.3 253.33"/><path id="h2U8ed98JX" d="M194.28 274.58L175.29 274.58C154.64 243.09 143.17 225.6 140.87 222.1C138.85 219.03 137.45 216.72 136.68 215.17C136.65 215.17 136.47 215.17 136.45 215.17C136.76 218.27 136.91 222.78 136.91 228.68C136.91 231.74 136.91 247.04 136.91 274.58L119.15 274.58L119.15 191.05L139.41 191.05L172.56 241.9L176.75 248.72C176.89 248.72 176.97 248.72 176.98 248.72C176.67 246.7 176.52 242.87 176.52 237.24C176.52 234.16 176.52 218.77 176.52 191.05L194.28 191.05L194.28 274.58ZM263.48 274.58L213.39 274.58L213.39 191.05L261.55 191.05L261.55 206.37L232.2 206.37L232.2 224.95L259.51 224.95L259.51 240.21L232.2 240.21L232.2 259.32L263.48 259.32L263.48 274.58ZM335.52 206.37L311.7 206.37L311.7 274.58L292.83 274.58L292.83 206.37L269.13 206.37L269.13 191.05L335.52 191.05L335.52 206.37Z"/></defs><g><g><g><g><filter id="shadow9140395" width="645.3" height="645.35" x="-1.48" y=".59" filterUnits="userSpaceOnUse" primitiveUnits="userSpaceOnUse"><feFlood/><feComposite in2="SourceAlpha" operator="in"/><feGaussianBlur stdDeviation="1"/><feOffset dx=".1" dy=".1" result="afterOffset"/><feFlood flood-color="#000" flood-opacity=".5"/><feComposite in2="afterOffset" operator="in"/><feMorphology operator="dilate" radius=".5"/><feComposite in2="SourceAlpha" operator="out"/></filter><path id="bPSRIZres" fill="#fff" fill-opacity="1" stroke="#000" stroke-width="2%" d="M78.18 80.28C-17.91 176.41 -17.91 332.82 78.18 428.96C163.77 514.53 297.08 523.7 393.13 456.88C395.15 466.44 399.77 475.57 407.21 483C421.21 497 533.18 608.98 547.18 622.98C567.58 643.33 600.54 643.33 620.83 622.98C641.21 602.6 641.21 569.64 620.83 549.32C606.84 535.32 494.86 423.31 480.86 409.31C473.47 401.93 464.32 397.29 454.76 395.27C521.62 299.2 512.45 165.91 426.84 80.28C330.73 -15.83 174.3 -15.83 78.18 80.28ZM122.37 384.77C50.66 313.01 50.66 196.25 122.37 124.49C194.11 52.76 310.89 52.76 382.65 124.49C454.4 196.25 454.4 313.01 382.65 384.77C310.89 456.52 194.11 456.52 122.37 384.77Z"/></g><use fill="#fff" fill-opacity="1" opacity="1" xlink:href="#ax51glKjl"/></g><g><use fill="#68217a" fill-opacity="1" opacity="1" xlink:href="#b16WydrtxU"/><g><use fill-opacity="0" stroke="#000" stroke-opacity="0" stroke-width="1" opacity="1" xlink:href="#b16WydrtxU"/></g></g><g><use fill="#fff" fill-opacity="1" opacity="1" xlink:href="#a3fSdH2Na6"/></g><g><use fill="#cf18fd" fill-opacity="1" opacity="1" xlink:href="#b39iKYr0O"/><g><use fill-opacity="0" stroke="#000" stroke-opacity="0" stroke-width="1" opacity="1" xlink:href="#b39iKYr0O"/></g></g><g><use fill="#fff" fill-opacity="1" opacity="1" xlink:href="#h2U8ed98JX"/><g><use fill-opacity="0" stroke="#000" stroke-opacity="0" stroke-width="1" opacity="1" xlink:href="#h2U8ed98JX"/></g></g></g></g></svg>